<svg width="116" height="30" viewBox="0 0 116 30" fill="none" xmlns="http://www.w3.org/2000/svg">
<path d="M3.39844 20.6973C4.57031 21.4004 5.85938 21.918 7.26562 22.25C8.67188 22.582 10.1123 22.748 11.5869 22.748C12.583 22.748 13.4131 22.6797 14.0771 22.543C14.7412 22.4062 15.2734 22.2305 15.6738 22.0156C16.0742 21.8008 16.3574 21.5566 16.5234 21.2832C16.6895 21.0098 16.7725 20.7314 16.7725 20.4482C16.7725 20.0381 16.5918 19.6865 16.2305 19.3936C15.8789 19.1006 15.293 18.9541 14.4727 18.9541C14.0918 18.9541 13.6816 18.9785 13.2422 19.0273C12.8027 19.0762 12.3389 19.1299 11.8506 19.1885C11.3721 19.2373 10.8691 19.2861 10.3418 19.335C9.82422 19.3838 9.29688 19.4082 8.75977 19.4082C7.58789 19.4082 6.58691 19.2812 5.75684 19.0273C4.93652 18.7734 4.26758 18.4268 3.75 17.9873C3.23242 17.5479 2.85645 17.0303 2.62207 16.4346C2.3877 15.8291 2.27051 15.1797 2.27051 14.4863C2.27051 13.6074 2.47559 12.7969 2.88574 12.0547C3.2959 11.3125 3.88184 10.6729 4.64355 10.1357C5.40527 9.58887 6.32324 9.16406 7.39746 8.86133C8.48145 8.55859 9.6875 8.40723 11.0156 8.40723C11.709 8.40723 12.4316 8.45117 13.1836 8.53906C13.9453 8.61719 14.6924 8.72461 15.4248 8.86133C16.1572 8.99805 16.8604 9.15918 17.5342 9.34473C18.208 9.52051 18.8037 9.71094 19.3213 9.91602L17.959 13.2852C16.8555 12.875 15.752 12.5527 14.6484 12.3184C13.5547 12.0742 12.4268 11.9521 11.2646 11.9521C10.4541 11.9521 9.76562 12.0156 9.19922 12.1426C8.64258 12.2598 8.18848 12.4209 7.83691 12.626C7.48535 12.8213 7.22656 13.0508 7.06055 13.3145C6.9043 13.5684 6.82617 13.8369 6.82617 14.1201C6.82617 14.3252 6.86523 14.5107 6.94336 14.6768C7.03125 14.8428 7.16797 14.9893 7.35352 15.1162C7.54883 15.2334 7.79785 15.3262 8.10059 15.3945C8.41309 15.4531 8.79395 15.4824 9.24316 15.4824C9.65332 15.4824 10.0879 15.458 10.5469 15.4092C11.0059 15.3604 11.4844 15.3115 11.9824 15.2627C12.4805 15.2041 12.9932 15.1504 13.5205 15.1016C14.0576 15.0527 14.6045 15.0283 15.1611 15.0283C16.1963 15.0283 17.0996 15.1504 17.8711 15.3945C18.6523 15.6387 19.2969 15.9805 19.8047 16.4199C20.3125 16.8594 20.6934 17.377 20.9473 17.9727C21.2012 18.5684 21.3281 19.2178 21.3281 19.9209C21.3281 20.8291 21.1182 21.6738 20.6982 22.4551C20.2783 23.2363 19.6533 23.915 18.8232 24.4912C17.9932 25.0576 16.958 25.502 15.7178 25.8242C14.4873 26.1465 13.0615 26.3076 11.4404 26.3076C10.4443 26.3076 9.48242 26.2441 8.55469 26.1172C7.62695 26 6.74316 25.8389 5.90332 25.6338C5.06348 25.4189 4.27246 25.1699 3.53027 24.8867C2.79785 24.6035 2.12891 24.3008 1.52344 23.9785L3.39844 20.6973ZM22.9189 20.5508C22.9189 19.7207 23.0996 18.9639 23.4609 18.2803C23.8223 17.5967 24.3643 17.0107 25.0869 16.5225C25.8096 16.0244 26.708 15.6436 27.7822 15.3799C28.8662 15.1064 30.126 14.9697 31.5615 14.9697C32.626 14.9697 33.7441 15.0479 34.916 15.2041C36.0977 15.3604 37.3135 15.5996 38.5635 15.9219C38.5146 15.375 38.3486 14.8721 38.0654 14.4131C37.7822 13.9443 37.3867 13.5439 36.8789 13.2119C36.3809 12.8701 35.7754 12.6064 35.0625 12.4209C34.3594 12.2354 33.5586 12.1426 32.6602 12.1426C32.1719 12.1426 31.6348 12.1719 31.0488 12.2305C30.4629 12.2891 29.8574 12.377 29.2324 12.4941C28.6074 12.6113 27.9873 12.7578 27.3721 12.9336C26.7666 13.1094 26.2002 13.3193 25.6729 13.5635L24.3545 10.0039C25.0088 9.76953 25.707 9.55469 26.4492 9.35938C27.2012 9.16406 27.9678 8.99805 28.749 8.86133C29.5303 8.71484 30.3115 8.60254 31.0928 8.52441C31.874 8.44629 32.6309 8.40723 33.3633 8.40723C36.5957 8.40723 38.998 9.23242 40.5703 10.8828C42.1426 12.5332 42.9287 15.0625 42.9287 18.4707V26H38.5928V24.374C38.1436 24.6377 37.6504 24.8867 37.1133 25.1211C36.5859 25.3555 36.0098 25.5605 35.3848 25.7363C34.7598 25.9121 34.0859 26.0488 33.3633 26.1465C32.6504 26.2539 31.8936 26.3076 31.0928 26.3076C29.7451 26.3076 28.5586 26.1611 27.5332 25.8682C26.5176 25.5752 25.668 25.1699 24.9844 24.6523C24.3008 24.1348 23.7832 23.5293 23.4316 22.8359C23.0898 22.1328 22.9189 21.3711 22.9189 20.5508ZM27.4893 20.4043C27.4893 20.6875 27.5625 20.9609 27.709 21.2246C27.8555 21.4785 28.0898 21.708 28.4121 21.9131C28.7344 22.1084 29.1445 22.2695 29.6426 22.3965C30.1504 22.5137 30.7607 22.5723 31.4736 22.5723C32.2354 22.5723 32.9727 22.5039 33.6855 22.3672C34.3984 22.2305 35.0625 22.0498 35.6777 21.8252C36.293 21.6006 36.8496 21.3418 37.3477 21.0488C37.8457 20.7559 38.2607 20.4531 38.5928 20.1406V19.3789C37.9287 19.1934 37.2695 19.0371 36.6152 18.9102C35.9707 18.7832 35.3506 18.6855 34.7549 18.6172C34.1689 18.5391 33.6123 18.4854 33.085 18.4561C32.5674 18.4268 32.1133 18.4121 31.7227 18.4121C30.9121 18.4121 30.2383 18.4658 29.7012 18.5732C29.1641 18.6807 28.7295 18.8271 28.3975 19.0127C28.0654 19.1885 27.8311 19.3984 27.6943 19.6426C27.5576 19.8867 27.4893 20.1406 27.4893 20.4043ZM47.0537 1.69824H51.3896V10.3408C51.7705 10.0771 52.2197 9.82812 52.7373 9.59375C53.2549 9.35938 53.8115 9.1543 54.4072 8.97852C55.0029 8.80273 55.6182 8.66602 56.2529 8.56836C56.8877 8.46094 57.5225 8.40723 58.1572 8.40723C59.6221 8.40723 60.9648 8.62207 62.1855 9.05176C63.416 9.48145 64.4707 10.0869 65.3496 10.8682C66.2285 11.6494 66.9121 12.5869 67.4004 13.6807C67.8984 14.7646 68.1475 15.9658 68.1475 17.2842C68.1475 18.6611 67.8887 19.9062 67.3711 21.0195C66.8535 22.123 66.1357 23.0703 65.2178 23.8613C64.3096 24.6426 63.2256 25.248 61.9658 25.6777C60.7158 26.0977 59.3584 26.3076 57.8936 26.3076C57.2686 26.3076 56.6484 26.2686 56.0332 26.1904C55.4277 26.1123 54.8418 26.0049 54.2754 25.8682C53.7188 25.7314 53.1914 25.5703 52.6934 25.3848C52.2051 25.1895 51.7705 24.9795 51.3896 24.7549V26H47.0537V1.69824ZM51.3896 20.5654C51.8291 20.917 52.293 21.2148 52.7812 21.459C53.2695 21.7031 53.7676 21.9033 54.2754 22.0596C54.7832 22.2158 55.2959 22.333 55.8135 22.4111C56.3311 22.4795 56.834 22.5137 57.3223 22.5137C58.3184 22.5137 59.2021 22.3818 59.9736 22.1182C60.7549 21.8447 61.4092 21.4736 61.9365 21.0049C62.4736 20.5361 62.8838 19.9844 63.167 19.3496C63.4502 18.7148 63.5918 18.0264 63.5918 17.2842C63.5918 16.5908 63.4502 15.9365 63.167 15.3213C62.8936 14.7061 62.4932 14.1689 61.9658 13.71C61.4482 13.2412 60.8184 12.875 60.0762 12.6113C59.3438 12.3379 58.5186 12.2012 57.6006 12.2012C57.0146 12.2012 56.4287 12.2598 55.8428 12.377C55.2568 12.4844 54.6904 12.6406 54.1436 12.8457C53.6064 13.0508 53.0986 13.2998 52.6201 13.5928C52.1514 13.8857 51.7412 14.2129 51.3896 14.5742V20.5654ZM70.5439 1.69824H74.8799V10.3408C75.2607 10.0771 75.71 9.82812 76.2275 9.59375C76.7451 9.35938 77.3018 9.1543 77.8975 8.97852C78.4932 8.80273 79.1084 8.66602 79.7432 8.56836C80.3779 8.46094 81.0127 8.40723 81.6475 8.40723C83.1123 8.40723 84.4551 8.62207 85.6758 9.05176C86.9062 9.48145 87.9609 10.0869 88.8398 10.8682C89.7188 11.6494 90.4023 12.5869 90.8906 13.6807C91.3887 14.7646 91.6377 15.9658 91.6377 17.2842C91.6377 18.6611 91.3789 19.9062 90.8613 21.0195C90.3438 22.123 89.626 23.0703 88.708 23.8613C87.7998 24.6426 86.7158 25.248 85.4561 25.6777C84.2061 26.0977 82.8486 26.3076 81.3838 26.3076C80.7588 26.3076 80.1387 26.2686 79.5234 26.1904C78.918 26.1123 78.332 26.0049 77.7656 25.8682C77.209 25.7314 76.6816 25.5703 76.1836 25.3848C75.6953 25.1895 75.2607 24.9795 74.8799 24.7549V26H70.5439V1.69824ZM74.8799 20.5654C75.3193 20.917 75.7832 21.2148 76.2715 21.459C76.7598 21.7031 77.2578 21.9033 77.7656 22.0596C78.2734 22.2158 78.7861 22.333 79.3037 22.4111C79.8213 22.4795 80.3242 22.5137 80.8125 22.5137C81.8086 22.5137 82.6924 22.3818 83.4639 22.1182C84.2451 21.8447 84.8994 21.4736 85.4268 21.0049C85.9639 20.5361 86.374 19.9844 86.6572 19.3496C86.9404 18.7148 87.082 18.0264 87.082 17.2842C87.082 16.5908 86.9404 15.9365 86.6572 15.3213C86.3838 14.7061 85.9834 14.1689 85.4561 13.71C84.9385 13.2412 84.3086 12.875 83.5664 12.6113C82.834 12.3379 82.0088 12.2012 81.0908 12.2012C80.5049 12.2012 79.9189 12.2598 79.333 12.377C78.7471 12.4844 78.1807 12.6406 77.6338 12.8457C77.0967 13.0508 76.5889 13.2998 76.1104 13.5928C75.6416 13.8857 75.2314 14.2129 74.8799 14.5742V20.5654ZM96.4365 6.35645C96.0068 6.35645 95.6162 6.29785 95.2646 6.18066C94.9229 6.05371 94.6299 5.8877 94.3857 5.68262C94.1416 5.46777 93.9512 5.22363 93.8145 4.9502C93.6875 4.66699 93.624 4.36914 93.624 4.05664C93.624 3.73438 93.6875 3.43652 93.8145 3.16309C93.9512 2.87988 94.1416 2.63574 94.3857 2.43066C94.6299 2.22559 94.9229 2.06445 95.2646 1.94727C95.6162 1.82031 96.0068 1.75684 96.4365 1.75684C96.876 1.75684 97.2666 1.82031 97.6084 1.94727C97.96 2.06445 98.2578 2.22559 98.502 2.43066C98.7461 2.63574 98.9316 2.87988 99.0586 3.16309C99.1953 3.43652 99.2637 3.73438 99.2637 4.05664C99.2637 4.36914 99.1953 4.66699 99.0586 4.9502C98.9316 5.22363 98.7461 5.46777 98.502 5.68262C98.2578 5.8877 97.96 6.05371 97.6084 6.18066C97.2666 6.29785 96.876 6.35645 96.4365 6.35645ZM94.2686 8.71484H98.6045V26H94.2686V8.71484ZM102.671 8.71484H107.007V11.2051C107.964 10.4922 108.975 9.87695 110.039 9.35938C111.104 8.8418 112.163 8.44629 113.218 8.17285L114.492 12.1426C112.822 12.3086 111.353 12.6846 110.083 13.2705C108.823 13.8467 107.798 14.6621 107.007 15.7168V26H102.671V8.71484Z" fill="white"/>
<ellipse cx="96.5" cy="4" rx="3.5" ry="3" fill="#FF701E"/>
</svg>
